<?xml version="1.0" encoding="UTF-8"?>
<!DOCTYPE svg PUBLIC "-//W3C//DTD SVG 1.0//EN" "http://www.w3.org/TR/2001/REC-SVG-20010904/DTD/svg10.dtd">
<!-- Creator: CorelDRAW X8 -->
<svg xmlns="http://www.w3.org/2000/svg" xml:space="preserve" width="17.2065in" height="31.9972in" version="1.0" style="shape-rendering:geometricPrecision; text-rendering:geometricPrecision; image-rendering:optimizeQuality; fill-rule:evenodd; clip-rule:evenodd"
viewBox="0 0 1146 2132"
 xmlns:xlink="http://www.w3.org/1999/xlink">
 <defs>
  <style type="text/css">
   <![CDATA[
    .fil0 {fill:#D0B460}
    .fil1 {fill:#D0B460;fill-rule:nonzero}
   ]]>
  </style>
 </defs>
 <g id="Layer_x0020_1">
  <metadata id="CorelCorpID_0Corel-Layer"/>
  <g id="_2339460650288">
   <path class="fil0" d="M310 294l69 -59c17,7 30,16 37,28 8,12 12,27 12,45l0 231c0,7 1,11 4,15 3,5 11,12 21,20l30 -25 10 10 -73 59 -67 -44 19 -25 0 -206c0,-14 -1,-24 -3,-29 -3,-9 -7,-16 -13,-21 -5,-4 -8,-6 -11,-6 -4,0 -8,3 -15,8 -3,3 -7,6 -10,8l-10 -9z"/>
   <path class="fil0" d="M714 719c42,15 74,37 97,69 23,31 35,68 35,110 0,42 -11,81 -32,115 -21,34 -51,63 -88,87 -27,-7 -50,-18 -72,-36 -21,-17 -38,-38 -49,-64 -11,-26 -16,-53 -16,-80 0,-40 11,-79 34,-116 23,-37 53,-65 91,-85zm-48 50c-26,29 -38,64 -38,104 0,29 7,56 19,82 12,25 29,46 52,62 24,17 47,27 71,31 13,-19 23,-35 28,-51 6,-16 9,-33 9,-53 0,-26 -6,-51 -16,-75 -11,-24 -27,-45 -48,-61 -22,-18 -47,-30 -77,-39z"/>
   <path class="fil0" d="M61 234l0 0c11,7 25,11 38,11 44,0 79,-35 79,-79 0,-43 -35,-78 -79,-78 -43,0 -78,35 -78,78 0,11 3,22 6,32 -5,31 -181,1109 437,1241l8 -39c-1,0 -554,-47 -411,-1166zm37 -111c24,0 43,19 43,42 0,23 -19,43 -43,43 -23,0 -42,-20 -42,-43 1,-23 19,-42 42,-42z"/>
   <polygon class="fil0" points="573,38 965,97 972,57 573,0 174,57 181,97 "/>
   <path class="fil0" d="M1120 197c4,-10 6,-21 6,-32 0,-43 -35,-78 -78,-78 -44,0 -79,35 -79,78 0,44 35,79 79,79 13,0 26,-4 38,-10l0 0c142,1118 -411,1165 -411,1165l9 39c616,-131 440,-1210 436,-1241zm-72 -74c23,0 42,19 42,42 0,23 -19,43 -42,43 -24,0 -43,-20 -43,-43 0,-23 19,-42 43,-42z"/>
   <path class="fil0" d="M1051 813l-39 -1c-44,483 -380,523 -384,523 -13,-15 -34,-23 -56,-23 -22,0 -41,9 -56,23 -4,0 -339,-40 -384,-523l-39 1c0,0 17,474 402,557 -2,7 -3,13 -3,20 0,44 35,79 78,79 44,0 79,-35 79,-79 0,-7 -1,-13 -3,-20 388,-83 405,-557 405,-557zm-436 577c0,23 -19,43 -42,43 -23,0 -42,-20 -42,-43 0,-23 19,-42 42,-42 23,0 42,19 42,42z"/>
   <path class="fil0" d="M1054 286c-108,-27 -134,-88 -139,-124l-30 43c0,0 0,1 0,1l-612 843c-32,-63 -62,-161 -56,-304l-91 0c0,0 -19,-276 3,-427 0,0 133,-40 140,-152l304 -50 200 34 8 -39 -208 -35 0 0 0 0 0 0 0 0 -342 57c0,0 21,114 -140,154 0,0 -31,276 -3,499l87 0c0,0 -14,205 103,346l24 -34c0,0 0,0 0,0l613 -844c41,45 100,63 100,63 22,151 3,427 3,427l-90 0c10,304 -133,403 -133,403l21 32c170,-137 152,-394 152,-394l87 0c31,-223 -1,-499 -1,-499z"/>
   <path class="fil1" d="M78 2039l47 7c2,14 8,25 17,32 12,9 28,13 49,13 23,0 40,-4 53,-13 12,-9 20,-22 24,-38 3,-10 4,-31 4,-62 -21,25 -48,37 -80,37 -39,0 -70,-14 -91,-42 -22,-29 -33,-63 -33,-103 0,-27 5,-52 15,-76 10,-23 24,-41 43,-53 19,-13 41,-19 67,-19 33,0 61,14 83,41l0 -35 45 0 0 248c0,45 -4,77 -13,95 -9,19 -24,34 -44,44 -19,11 -44,17 -72,17 -35,0 -62,-8 -83,-23 -21,-16 -32,-39 -31,-70zm40 -172c0,37 7,65 22,82 15,17 34,26 57,26 22,0 41,-9 56,-26 15,-17 23,-44 23,-81 0,-35 -8,-61 -24,-79 -15,-18 -34,-27 -56,-27 -22,0 -40,9 -55,27 -15,17 -23,43 -23,78zm465 148l0 -42c-23,32 -53,49 -91,49 -17,0 -33,-4 -47,-10 -15,-7 -26,-15 -33,-25 -7,-10 -12,-22 -15,-36 -2,-9 -3,-24 -3,-45l0 -178 49 0 0 159c0,25 1,43 3,51 3,13 9,23 19,30 10,8 22,11 37,11 14,0 28,-3 41,-11 12,-7 22,-17 27,-30 5,-13 8,-32 8,-56l0 -154 49 0 0 287 -44 0zm119 0l0 -396 49 0 0 396 -49 0zm310 0l0 -36c-19,28 -45,43 -81,43 -23,0 -44,-7 -63,-19 -19,-13 -34,-31 -44,-53 -11,-23 -16,-49 -16,-78 0,-29 5,-55 14,-78 10,-23 24,-41 43,-53 19,-13 41,-19 64,-19 17,0 33,4 46,11 14,7 25,17 33,29l0 -143 49 0 0 396 -45 0zm-154 -143c0,37 7,64 23,82 16,19 34,28 55,28 21,0 39,-9 54,-26 15,-18 23,-44 23,-80 0,-39 -8,-68 -23,-86 -15,-19 -34,-28 -56,-28 -22,0 -40,9 -55,27 -14,17 -21,45 -21,83z"/>
  </g>
 </g>
</svg>
