<?xml version="1.0" encoding="UTF-8"?>
<!DOCTYPE svg PUBLIC "-//W3C//DTD SVG 1.0//EN" "http://www.w3.org/TR/2001/REC-SVG-20010904/DTD/svg10.dtd">
<!-- Creator: CorelDRAW X8 -->
<svg xmlns="http://www.w3.org/2000/svg" xml:space="preserve" width="32.6999in" height="10.5218in" version="1.0" style="shape-rendering:geometricPrecision; text-rendering:geometricPrecision; image-rendering:optimizeQuality; fill-rule:evenodd; clip-rule:evenodd"
viewBox="0 0 3516 1131"
 xmlns:xlink="http://www.w3.org/1999/xlink">
 <defs>
  <style type="text/css">
   <![CDATA[
    .fil0 {fill:#D0B460;fill-rule:nonzero}
   ]]>
  </style>
 </defs>
 <g id="Layer_x0020_1">
  <metadata id="CorelCorpID_0Corel-Layer"/>
  <path class="fil0" d="M22 927l104 15c4,32 16,56 36,71 27,19 63,29 110,29 49,0 88,-10 115,-29 27,-20 45,-48 55,-84 5,-22 8,-67 8,-137 -47,55 -106,83 -176,83 -87,0 -155,-31 -202,-94 -48,-63 -72,-138 -72,-226 0,-61 11,-117 33,-168 22,-51 53,-90 95,-118 41,-28 90,-42 147,-42 74,0 136,31 184,92l0 -78 99 0 0 547c0,99 -10,169 -30,210 -20,41 -52,74 -95,98 -44,23 -97,35 -161,35 -75,0 -136,-16 -183,-50 -46,-34 -69,-85 -67,-154zm88 -380c0,83 16,143 49,181 34,39 75,58 125,58 49,0 91,-19 124,-57 34,-38 50,-97 50,-179 0,-77 -17,-135 -52,-175 -34,-39 -75,-59 -124,-59 -48,0 -88,20 -122,59 -33,38 -50,96 -50,172zm1026 328l0 -94c-50,71 -117,107 -201,107 -37,0 -72,-7 -105,-21 -32,-15 -56,-32 -72,-54 -15,-22 -26,-48 -33,-80 -4,-21 -6,-54 -6,-100l0 -392 107 0 0 351c0,56 3,93 7,113 7,28 21,50 43,66 22,16 49,24 81,24 32,0 62,-8 90,-24 28,-17 48,-39 60,-68 12,-28 18,-69 18,-123l0 -339 107 0 0 634 -96 0zm262 0l0 -875 108 0 0 875 -108 0zm684 0l0 -81c-40,63 -99,94 -177,94 -51,0 -97,-14 -140,-41 -42,-28 -75,-67 -98,-117 -23,-50 -35,-107 -35,-172 0,-63 11,-120 32,-171 21,-52 52,-91 95,-119 41,-27 89,-41 141,-41 38,0 72,8 102,25 29,16 54,37 72,63l0 -315 108 0 0 875 -100 0zm-340 -316c0,81 17,141 52,181 34,40 74,60 121,60 47,0 87,-19 120,-57 33,-38 49,-97 49,-175 0,-87 -17,-150 -50,-191 -34,-40 -75,-61 -124,-61 -48,0 -88,20 -120,59 -32,39 -48,100 -48,184zm641 316l0 -122 122 0 0 122 -122 0zm308 -753l0 -122 108 0 0 122 -108 0zm0 753l0 -634 108 0 0 634 -108 0zm232 -317c0,-117 32,-204 98,-260 54,-47 121,-71 199,-71 87,0 158,29 214,86 55,57 82,135 82,236 0,81 -12,145 -36,192 -25,47 -60,83 -107,109 -47,25 -98,38 -153,38 -89,0 -161,-28 -215,-85 -55,-57 -82,-138 -82,-245zm110 0c0,81 17,142 53,182 35,40 80,60 134,60 53,0 98,-20 133,-60 36,-41 53,-103 53,-185 0,-79 -17,-138 -53,-178 -36,-40 -80,-61 -133,-61 -54,0 -99,20 -134,61 -36,40 -53,100 -53,181z"/>
 </g>
</svg>
